<svg width="356" height="273" viewBox="0 0 356 273" fill="none" xmlns="http://www.w3.org/2000/svg">
<path d="M90.8181 72.6858C88.8551 76.1675 83.9791 75.1908 82.7243 71.3958C74.7361 47.2384 62.4719 24.8771 46.7658 5.09331C45.3343 3.29016 46.4356 0.629089 48.7379 0.629089C75.4055 0.629089 97.0244 22.2694 97.0244 48.9633C97.0244 57.5838 94.7693 65.6777 90.8181 72.6858Z" fill="#FAFDFE"/>
<path d="M48.7379 97.2985V97.2985C48.6115 97.2985 48.5048 97.2057 48.4835 97.0812C47.0583 88.7591 39.8152 82.4263 31.0945 82.4263C27.9904 82.4263 25.0734 83.2286 22.5394 84.6375C20.3966 85.829 17.6642 86.0425 15.8693 84.3723C6.38457 75.5466 0.450516 62.9488 0.450516 48.9633C0.450516 25.0064 17.8634 5.11957 40.7112 1.29329C42.3654 1.01626 44.0219 1.6957 45.0805 2.99666C62.9918 25.0075 76.5997 50.304 84.7228 77.7794C85.196 79.38 84.8263 81.1207 83.6746 82.3287C74.8813 91.5522 62.4809 97.2985 48.7379 97.2985Z" fill="#D7EFF7"/>
<path d="M31.0945 117.748C21.3499 117.748 13.4511 109.84 13.4511 100.087C13.4511 96.495 14.522 93.1537 16.362 90.3655C17.7124 88.3192 20.512 88.2615 22.5707 89.5928C29.3178 93.9562 37.2209 96.6805 45.7196 97.2051C47.3312 97.3046 48.7379 98.4724 48.7379 100.087C48.7379 109.84 40.8382 117.748 31.0945 117.748Z" fill="#E8F5FB"/>
<path d="M46.6518 91.7488C48.1081 94.4657 45.7117 97.3028 42.6532 96.918C35.8823 96.066 29.5482 93.811 23.9501 90.4523C21.3077 88.867 21.1741 85.1568 23.9941 83.9146C26.1666 82.9575 28.5686 82.4263 31.0945 82.4263C37.8261 82.4263 43.6773 86.1997 46.6518 91.7488Z" fill="#EBF6FB"/>
<path d="M163.883 267.399C163.883 270.479 144.967 272.976 121.632 272.976C98.2977 272.976 79.381 270.479 79.381 267.399C79.381 264.32 98.2977 261.822 121.632 261.822C144.967 261.822 163.883 264.32 163.883 267.399Z" fill="#B2E0EA"/>
<path d="M355.174 260.428C355.174 262.738 336.049 264.61 312.458 264.61C288.867 264.61 269.742 262.738 269.742 260.428C269.742 258.117 288.867 256.245 312.458 256.245C336.049 256.245 355.174 258.117 355.174 260.428Z" fill="#B2E0EA"/>
<path d="M312.41 244.162H75.7433C66.2817 244.162 58.5402 236.412 58.5402 226.941V43.8761C58.5402 34.4042 66.2817 26.655 75.7433 26.655H312.41C321.871 26.655 329.614 34.4042 329.614 43.8761V226.941C329.614 236.412 321.871 244.162 312.41 244.162Z" fill="#48C2C9"/>
<path d="M77.9149 236.415C71.7399 236.415 66.7331 231.404 66.7331 225.224V45.5942C66.7331 39.4122 71.7399 34.4014 77.9149 34.4014H310.238C316.414 34.4014 321.42 39.4122 321.42 45.5942V225.224C321.42 231.404 316.414 236.415 310.238 236.415H77.9149Z" fill="#2C9E9E"/>
<path d="M307.522 230.574H80.6309C76.6424 230.574 73.4078 227.338 73.4078 223.344V47.4726C73.4078 43.4792 76.6424 40.2424 80.6309 40.2424H307.522C311.511 40.2424 314.745 43.4792 314.745 47.4726V223.344C314.745 227.338 311.511 230.574 307.522 230.574Z" fill="#CAEAF6"/>
<path d="M51.1435 230.152C47.247 230.152 45.0055 234.36 47.8763 236.995C53.3924 242.057 60.7317 245.157 68.7596 245.157H319.394C327.422 245.157 334.761 242.057 340.277 236.995C343.148 234.36 340.906 230.152 337.01 230.152H51.1435Z" fill="#2C9E9E"/>
<path d="M44.7887 233.709C45.2368 234.256 45.9124 234.556 46.6194 234.556H341.535C342.242 234.556 342.917 234.256 343.365 233.709C344.579 232.228 343.44 230.152 341.525 230.152H46.6284C44.7138 230.152 43.5751 232.228 44.7887 233.709Z" fill="#48C2C9"/>
<path d="M159.859 186.179C159.859 188.941 157.621 191.179 154.859 191.179H97.3813C94.6199 191.179 92.3813 188.941 92.3813 186.179V158.379C92.3813 155.618 94.6199 153.379 97.3813 153.379H154.859C157.621 153.379 159.859 155.618 159.859 158.379V186.179Z" fill="#DB633A"/>
<path d="M183.768 58.3677C183.768 59.3344 182.984 60.118 182.018 60.118H160.135C159.169 60.118 158.385 59.3344 158.385 58.3677C158.385 57.4011 159.169 56.6175 160.135 56.6175H182.018C182.984 56.6175 183.768 57.4011 183.768 58.3677Z" fill="#48C2C9"/>
<path d="M141.058 58.3677C141.058 59.3344 140.274 60.118 139.308 60.118H127.312C126.345 60.118 125.562 59.3344 125.562 58.3677C125.562 57.4011 126.345 56.6175 127.312 56.6175H139.308C140.274 56.6175 141.058 57.4011 141.058 58.3677Z" fill="#48C2C9"/>
<path d="M120.88 58.3677C120.88 59.3344 120.096 60.118 119.13 60.118H91.9285C90.9619 60.118 90.1783 59.3344 90.1783 58.3677C90.1783 57.4011 90.9619 56.6175 91.9285 56.6175H119.13C120.096 56.6175 120.88 57.4011 120.88 58.3677Z" fill="#48C2C9"/>
<path d="M152.568 58.3677C152.568 59.3344 151.785 60.118 150.818 60.118H147.66C146.693 60.118 145.909 59.3344 145.909 58.3677C145.909 57.4011 146.693 56.6175 147.66 56.6175H150.818C151.785 56.6175 152.568 57.4011 152.568 58.3677Z" fill="#48C2C9"/>
<path d="M205.67 58.3677C205.67 59.3344 204.886 60.118 203.92 60.118H191.978C191.011 60.118 190.228 59.3344 190.228 58.3677C190.228 57.4011 191.011 56.6175 191.978 56.6175H203.92C204.886 56.6175 205.67 57.4011 205.67 58.3677Z" fill="#48C2C9"/>
<path d="M167.907 68.5925C167.907 69.5591 167.123 70.3427 166.157 70.3427H160.135C159.168 70.3427 158.385 69.5591 158.385 68.5925C158.385 67.6259 159.169 66.8422 160.135 66.8422H166.157C167.123 66.8422 167.907 67.6259 167.907 68.5925Z" fill="#48C2C9"/>
<path d="M181.217 68.5925C181.217 69.5591 180.433 70.3427 179.466 70.3427H173.444C172.477 70.3427 171.693 69.5591 171.693 68.5925C171.693 67.6259 172.477 66.8422 173.444 66.8422H179.466C180.433 66.8422 181.217 67.6259 181.217 68.5925Z" fill="#48C2C9"/>
<path d="M125.271 68.5925C125.271 69.5591 124.488 70.3427 123.521 70.3427H111.526C110.559 70.3427 109.775 69.5591 109.775 68.5925C109.775 67.6259 110.559 66.8422 111.526 66.8422H123.521C124.488 66.8422 125.271 67.6259 125.271 68.5925Z" fill="#48C2C9"/>
<path d="M105.381 68.5925C105.381 69.5591 104.597 70.3427 103.631 70.3427H91.9285C90.9619 70.3427 90.1783 69.5591 90.1783 68.5925C90.1783 67.6259 90.9619 66.8422 91.9285 66.8422H103.631C104.597 66.8422 105.381 67.6259 105.381 68.5925Z" fill="#48C2C9"/>
<path d="M155.044 68.5925C155.044 69.5591 154.261 70.3427 153.294 70.3427H131.275C130.309 70.3427 129.525 69.5591 129.525 68.5925C129.525 67.6259 130.309 66.8422 131.275 66.8422H153.294C154.261 66.8422 155.044 67.6259 155.044 68.5925Z" fill="#48C2C9"/>
<path d="M131.98 261.128C133.481 261.051 134.545 259.574 134.23 258.104C132.551 250.253 130.13 232.874 129.525 225.468C129.396 223.879 114.066 217.697 110.334 216.215C109.795 216.001 109.223 215.884 108.642 215.881C105.528 215.867 102.841 216.201 100.587 216.688C96.6717 217.534 97.0275 221.891 100.822 223.173L116.428 228.45C118.459 229.137 119.798 231.048 120.076 233.174C121.416 243.418 127.772 256.001 129.877 259.954C130.288 260.725 131.108 261.174 131.98 261.128Z" fill="#3E428F"/>
<path d="M103.86 232.224C107.33 232.309 109.986 235.632 109.029 238.969L103.427 258.499C103.039 259.851 103.874 261.249 105.248 261.549C106.489 261.82 107.733 261.1 108.188 259.914C111.484 251.328 121.465 231.615 121.761 229.077C121.898 227.894 121.814 226.979 121.372 226.609C120.927 226.236 107.55 218.235 103.665 217.36C100.444 216.635 96.2572 215.641 93.533 214.989C91.7973 214.573 89.9542 215.114 89.0921 216.677C87.9591 218.731 86.7361 222.043 87.2219 226.294C87.7573 230.967 97.0533 232.057 103.86 232.224Z" fill="#5655A2"/>
<path d="M99.9208 181.291C99.8494 181.294 99.779 181.299 99.7079 181.305C98.6923 181.405 90.7047 182.259 90.3177 184.581C89.9868 186.569 92.9776 197.064 94.1722 201.133C94.4811 202.185 94.4433 203.303 94.0589 204.33L92.007 209.811C90.958 212.613 92.5932 215.683 95.5512 216.133C99.1771 216.685 103.901 217.117 107.509 216.441C108.823 216.194 109.846 215.242 110.044 213.92C110.525 210.707 111.029 204.577 111.138 203.222C111.153 203.039 111.19 202.865 111.251 202.691C111.934 200.741 114.715 200.812 115.299 202.794L116.17 205.756C116.268 206.088 116.42 206.401 116.62 206.683L121.123 213.021C122.098 214.393 124.028 214.657 125.335 213.598C126.443 212.7 126.738 211.132 126.034 209.893L122.571 203.802C122.486 203.651 122.411 203.502 122.341 203.343C121.442 201.302 114.858 186.424 113.016 184.581C109.534 181.094 100.975 181.258 99.9208 181.291Z" fill="#FEFEFE"/>
<path d="M107.126 182.398C107.056 182.1 107.002 181.796 106.979 181.49L106.556 175.867C106.417 174.024 104.882 172.6 103.034 172.6C101.083 172.6 99.5013 174.181 99.5013 176.132V177.211C99.5013 179.559 99.2219 183.146 100.468 185.136C101.394 186.615 102.891 188.031 105.038 188.34C105.614 188.423 106.225 188.309 106.605 187.869C107.212 187.168 107.888 185.624 107.126 182.398Z" fill="#E67C59"/>
<path d="M95.5993 202.065C95.2182 201.273 94.3929 201.889 94.6467 202.73C94.6955 202.892 94.6195 202.832 94.5602 202.991L91.9031 210.088C90.9094 212.743 89.811 215.083 92.5934 215.621C96.7552 216.427 100.197 212.71 98.0443 209.059C97.8866 208.791 97.7832 208.544 97.7465 208.323C97.3907 206.187 96.4989 203.935 95.5993 202.065Z" fill="#EFEEEE"/>
<path d="M113.108 163.445C113.089 163.25 113.06 163.061 112.992 162.877C112.196 160.713 108.532 160.102 102.874 160.768C98.9526 161.229 98.004 164.772 97.8586 167.496C97.8527 167.605 97.7757 167.697 97.6693 167.72C96.2852 168.145 95.2986 169.493 95.3739 170.959C95.4051 171.557 95.5792 172.113 95.8994 172.595C96.0629 172.842 96.2407 173.08 96.4283 173.309C96.9598 173.957 97.7313 174.387 98.5964 174.497C99.0938 174.56 99.5807 174.789 99.813 175.233C101.361 178.194 103.859 181.465 107.216 181.793C108.034 181.872 108.842 181.552 109.426 180.974C114.13 176.315 113.293 165.354 113.108 163.445Z" fill="#F7A077"/>
<path d="M97.3799 168.594C98.3725 168.648 99.1792 167.748 99.4039 166.78C99.6061 165.908 100.112 164.953 101.212 164.126C104.15 161.917 104.348 165.177 107.446 165.577C108.364 165.696 113.118 161.993 112.512 161.293C111.683 160.337 110.565 159.602 109.4 159.044C106.37 157.594 101.624 156.967 98.3274 159.721C96.0688 161.607 95.5671 165.306 95.4752 167.448C95.4415 168.233 96.5956 168.551 97.3799 168.594Z" fill="#34325A"/>
<path d="M98.2099 160.286C98.2867 159.917 98.2598 159.536 98.1043 159.193C97.3556 157.539 94.7337 152.664 90.4062 154.184C85.2216 156.007 87.5598 166.465 86.9874 171.016C86.5607 174.407 82.6088 178.467 85.8929 179.416C87.8303 179.976 89.9411 179.727 91.0801 178.095C93.8456 174.13 92.252 164.084 94.0205 163.06C94.2084 162.951 94.3963 162.869 94.5823 162.809C95.977 162.358 97.9116 161.721 98.2099 160.286Z" fill="#34325A"/>
<path d="M90.5244 183.754C88.3426 185.014 84.3336 200.061 84.3336 202.54C84.3336 204.608 97.8016 213.549 102.254 216.448C102.962 216.909 103.651 217.263 103.996 216.493C104.465 215.446 105.101 212.332 104.264 211.548C101.568 209.021 97.1875 204.848 94.5055 202.288C93.0837 200.931 92.5953 198.87 93.2495 197.017L95.6045 190.345C95.7932 189.811 95.8932 189.25 95.8502 188.684C95.687 186.538 94.8469 181.258 90.5244 183.754Z" fill="#FEFEFE"/>
<path d="M112.372 224.233C109.741 222.948 110.591 218.998 113.518 218.908L121.36 218.667C121.71 218.657 122.06 218.714 122.389 218.836C125.155 219.863 124.533 223.942 121.587 224.098L113.753 224.514C113.276 224.539 112.801 224.443 112.372 224.233Z" fill="#48C2C9"/>
<path d="M113.321 224.183C113.145 224.403 112.847 224.483 112.585 224.382L102.517 220.477C102.318 220.4 102.187 220.208 102.187 219.994C102.187 219.635 102.543 219.385 102.881 219.507L113.037 223.175C113.452 223.325 113.597 223.838 113.321 224.183Z" fill="#2C9E9E"/>
<path d="M120.441 224.3C116.896 224.421 114.357 220.916 115.575 217.585L118.268 210.226C119.023 208.162 121.037 206.833 123.232 206.951L134.103 207.535C137.526 207.719 139.753 211.214 138.474 214.394L135.9 220.795C135.161 222.631 133.409 223.859 131.431 223.926L120.441 224.3Z" fill="#2C9E9E"/>
<path d="M126.256 214.627C125.617 215.91 125.81 217.306 126.689 217.746C127.568 218.186 128.8 217.503 129.441 216.222C130.082 214.94 129.888 213.543 129.009 213.104C128.13 212.663 126.898 213.346 126.256 214.627Z" fill="#48C2C9"/>
<path d="M104.689 214.943C105.387 213.959 107.148 214.109 108.083 214.873C110.309 216.692 114.232 220.005 113.635 220.303C112.811 220.717 109.303 220.717 107.446 219.684C107.067 219.473 106.685 219.252 106.318 219.033C104.686 218.06 103.588 216.492 104.689 214.943Z" fill="#F7A077"/>
<path d="M107.652 260.583C109.044 261.994 113.78 264.135 116.112 264.713C118.613 265.333 118.175 267.436 116.348 267.436C113.662 267.436 108.515 267.184 104.445 267.057C102.294 266.99 100.371 265.472 101.148 263.464C101.498 262.558 102.003 261.687 102.541 260.966C102.923 260.455 107.452 260.381 107.652 260.583Z" fill="#34325A"/>
<path d="M135.923 260.583C137.314 261.994 142.05 264.135 144.383 264.713C146.884 265.333 146.445 267.436 144.618 267.436C141.932 267.436 136.785 267.184 132.716 267.057C130.564 266.99 128.642 265.472 129.419 263.464C129.769 262.558 130.274 261.687 130.813 260.966C131.193 260.455 135.723 260.381 135.923 260.583Z" fill="#34325A"/>
<path d="M111.669 141.295C111.669 142.736 110.5 143.904 109.059 143.904H95.3556C93.9146 143.904 92.7463 142.736 92.7463 141.295C92.7463 139.854 93.9146 138.686 95.3556 138.686H109.059C110.5 138.686 111.669 139.854 111.669 141.295Z" fill="#59C0A3"/>
<path d="M159.859 141.295C159.859 142.736 158.691 143.904 157.25 143.904H143.546C142.105 143.904 140.937 142.736 140.937 141.295C140.937 139.854 142.105 138.686 143.546 138.686H157.25C158.691 138.686 159.859 139.854 159.859 141.295Z" fill="#59C0A3"/>
<path d="M135.764 141.295C135.764 142.736 134.596 143.904 133.155 143.904H119.451C118.01 143.904 116.842 142.736 116.842 141.295C116.842 139.854 118.01 138.686 119.451 138.686H133.155C134.596 138.686 135.764 139.854 135.764 141.295Z" fill="#59C0A3"/>
<path d="M220.57 55.5265C221.226 58.2078 219.586 60.914 216.905 61.572L166.657 73.905C163.974 74.5634 161.266 72.9217 160.609 70.2387L157.511 57.5929C156.854 54.9117 158.495 52.2055 161.176 51.5474L211.424 39.2145C214.106 38.556 216.815 40.1978 217.472 42.8808L220.57 55.5265Z" fill="#FCBA4C"/>
<path d="M204.777 45.7C204.986 46.5535 204.464 47.415 203.611 47.6245L162.537 57.7054C161.683 57.915 160.821 57.3923 160.611 56.5383C160.403 55.685 160.925 54.8238 161.778 54.6144L202.852 44.5333C203.706 44.3237 204.568 44.8461 204.777 45.7Z" fill="#FDDB9E"/>
<path d="M198.862 52.9772C199.07 53.8306 198.548 54.6917 197.695 54.9011L163.882 63.1999C163.028 63.4094 162.166 62.887 161.957 62.0331C161.748 61.1796 162.27 60.3181 163.124 60.1087L196.937 51.8101C197.79 51.6005 198.653 52.1232 198.862 52.9772Z" fill="#FDDB9E"/>
<path d="M180.942 63.7554C181.151 64.6087 180.628 65.4699 179.775 65.6793L165.357 69.2179C164.503 69.4274 163.641 68.905 163.432 68.0511C163.222 67.1976 163.745 66.3361 164.598 66.1267L179.017 62.5883C179.871 62.3787 180.733 62.9014 180.942 63.7554Z" fill="#FDDB9E"/>
<path d="M210.079 50.307C210.288 51.1597 209.766 52.0204 208.913 52.2297L202.624 53.7737C201.771 53.9832 200.909 53.4612 200.7 52.6079C200.491 51.7549 201.013 50.8938 201.866 50.6845L208.155 49.1412C209.008 48.9318 209.87 49.4539 210.079 50.307Z" fill="#FEFEFE"/>
<path d="M154.375 77.927C157.137 77.927 159.375 80.1656 159.375 82.927V127.933C159.375 130.695 157.137 132.933 154.375 132.933H97.0323C94.2709 132.933 92.0323 130.695 92.0323 127.933V82.927C92.0323 80.1656 94.2709 77.927 97.0323 77.927H154.375Z" fill="#FEFEFE"/>
<path d="M296.854 129.459C296.854 132.22 294.616 134.459 291.854 134.459H169.417C166.656 134.459 164.417 132.22 164.417 129.459V114.652C164.417 111.891 166.656 109.652 169.417 109.652H291.854C294.616 109.652 296.854 111.891 296.854 114.652V129.459Z" fill="#57B1DC"/>
<path d="M292.891 125.869C292.891 128.63 290.652 130.869 287.891 130.869H262.052C259.291 130.869 257.052 128.63 257.052 125.869V118.242C257.052 115.481 259.291 113.242 262.052 113.242H287.891C290.652 113.242 292.891 115.481 292.891 118.242V125.869Z" fill="#FEFEFE"/>
<path d="M252.099 116.011C252.099 116.95 251.338 117.711 250.399 117.711H170.96C170.021 117.711 169.26 116.95 169.26 116.011C169.26 115.072 170.021 114.311 170.96 114.311H250.399C251.338 114.311 252.099 115.072 252.099 116.011Z" fill="#7ED1EA"/>
<path d="M252.099 122.055C252.099 122.994 251.338 123.755 250.399 123.755H170.96C170.021 123.755 169.26 122.994 169.26 122.055C169.26 121.116 170.021 120.355 170.96 120.355H250.399C251.338 120.355 252.099 121.116 252.099 122.055Z" fill="#7ED1EA"/>
<path d="M225.03 128.1C225.03 129.039 224.269 129.8 223.33 129.8H170.96C170.021 129.8 169.26 129.039 169.26 128.1C169.26 127.161 170.021 126.4 170.96 126.4H223.33C224.269 126.4 225.03 127.161 225.03 128.1Z" fill="#7ED1EA"/>
<path d="M291.72 206.952C291.72 209.713 289.481 211.952 286.72 211.952H169.448C166.687 211.952 164.448 209.713 164.448 206.952V157.178C164.448 154.417 166.687 152.178 169.448 152.178H286.72C289.481 152.178 291.72 154.417 291.72 157.178V206.952Z" fill="#FEFEFE"/>
<path d="M286.764 162.089C289.501 162.089 291.72 159.87 291.72 157.133C291.72 154.397 289.501 152.178 286.764 152.178H169.403C166.666 152.178 164.447 154.397 164.447 157.133C164.447 159.87 166.666 162.089 169.403 162.089H286.764Z" fill="#FBBF4F"/>
<path d="M241.026 178.704C241.026 180.097 239.897 181.226 238.504 181.226H170.057C168.664 181.226 167.535 180.097 167.535 178.704C167.535 177.311 168.664 176.181 170.057 176.181H238.504C239.897 176.181 241.026 177.311 241.026 178.704Z" fill="#9DD9E3"/>
<path d="M233.44 187.675C233.44 189.068 232.311 190.197 230.918 190.197H170.057C168.664 190.197 167.535 189.068 167.535 187.675C167.535 186.281 168.664 185.152 170.057 185.152H230.918C232.311 185.152 233.44 186.281 233.44 187.675Z" fill="#9DD9E3"/>
<path d="M211.984 196.644C211.984 198.037 210.855 199.167 209.461 199.167H170.058C168.664 199.167 167.535 198.037 167.535 196.644C167.535 195.25 168.664 194.121 170.058 194.121H209.461C210.855 194.121 211.984 195.25 211.984 196.644Z" fill="#9DD9E3"/>
<path d="M194.025 170.44C194.025 171.834 192.896 172.963 191.503 172.963H170.057C168.664 172.963 167.535 171.834 167.535 170.44C167.535 169.047 168.664 167.918 170.057 167.918H191.503C192.896 167.918 194.025 169.047 194.025 170.44Z" fill="#9DD9E3"/>
<path d="M286.623 201.149C286.623 203.911 284.384 206.149 281.623 206.149H253.183C250.422 206.149 248.183 203.911 248.183 201.149V172.672C248.183 169.91 250.422 167.672 253.183 167.672H281.623C284.384 167.672 286.623 169.91 286.623 172.672V201.149Z" fill="#8BD2E7"/>
<path d="M274.179 187.924C272.896 187.122 272.298 185.259 272.298 183.746V180.806C272.298 178.1 270.107 175.906 267.403 175.906C264.699 175.906 262.508 178.1 262.508 180.806V183.746C262.508 185.353 261.975 187.361 260.67 188.299C259.059 189.458 257.758 191.022 256.916 192.843C255.758 195.349 258.094 197.688 260.855 197.688H274.502C277.474 197.688 279.742 195.047 278.32 192.437C277.438 190.817 276.124 189.141 274.179 187.924Z" fill="#F6FAF7"/>
<path d="M173.522 157.382C173.522 158.764 172.404 159.883 171.024 159.883C169.644 159.883 168.526 158.764 168.526 157.382C168.526 156.002 169.644 154.882 171.024 154.882C172.404 154.882 173.522 156.002 173.522 157.382Z" fill="#DB633A"/>
<path d="M181.526 157.382C181.526 158.764 180.408 159.883 179.028 159.883C177.649 159.883 176.531 158.764 176.531 157.382C176.531 156.002 177.649 154.882 179.028 154.882C180.408 154.882 181.526 156.002 181.526 157.382Z" fill="#FCE686"/>
<path d="M190.812 157.382C190.812 158.764 189.693 159.883 188.314 159.883C186.935 159.883 185.816 158.764 185.816 157.382C185.816 156.002 186.935 154.882 188.314 154.882C189.693 154.882 190.812 156.002 190.812 157.382Z" fill="#35B38C"/>
<path d="M292.958 93.847C292.958 96.6084 290.719 98.847 287.958 98.847H253.385C250.624 98.847 248.385 96.6084 248.385 93.847V59.2313C248.385 56.4699 250.624 54.2313 253.385 54.2313H287.958C290.719 54.2313 292.958 56.4699 292.958 59.2313V93.847Z" fill="#DB633A"/>
<path d="M311.145 252.45C310.747 252.431 310.777 252.875 310.551 253.203C310.205 253.703 309.405 254.415 307.582 255.247C303.986 256.89 300.189 256.311 299.258 257.69C298.398 258.965 299.511 260.376 301.049 260.376H317.592C318.127 260.376 318.552 259.936 318.503 259.404C318.433 258.643 318.292 257.518 318.008 256.337C317.852 255.688 311.812 252.482 311.145 252.45Z" fill="#A1533E"/>
<path d="M333.412 252.441C333.029 252.422 333.059 252.849 332.841 253.164C332.509 253.645 331.74 254.33 329.986 255.131C326.529 256.71 322.879 256.152 321.984 257.479C321.156 258.705 322.226 260.062 323.706 260.062H339.613C340.126 260.062 340.534 259.64 340.488 259.129C340.421 258.397 340.285 257.314 340.012 256.179C339.862 255.556 334.052 252.472 333.412 252.441Z" fill="#A1533E"/>
<path d="M304.185 138.913C305.495 141.882 303.674 145.294 300.477 145.856L295.683 146.7C293.455 147.091 291.242 145.939 290.286 143.89L284.5 131.492C283.027 128.335 285.152 124.678 288.623 124.394L293.912 123.962C296.034 123.788 298.034 124.978 298.894 126.926L304.185 138.913Z" fill="#FEFEFE"/>
<path d="M317.892 102.14C317.309 102.508 316.884 103.074 316.619 103.71C316.042 105.092 315.086 107.762 315.086 110.275C315.086 112.787 315.405 116.417 315.597 118.375C315.667 119.087 316.369 119.556 317.053 119.346L317.661 119.159C318.796 118.809 319.935 119.685 319.889 120.871C319.851 121.86 320.651 122.677 321.64 122.66L324.266 122.615C326.393 122.578 328.158 120.959 328.377 118.843L329.544 107.602C329.692 106.183 329.236 104.755 328.12 103.868C325.893 102.098 321.764 99.6912 317.892 102.14Z" fill="#F7A077"/>
<path d="M315.97 107.449C316.491 108.329 319.698 108.808 320.684 109.079C321.47 109.295 321.739 109.768 321.733 110.319C321.715 112.29 320.944 114.358 321.9 116.082C322.453 117.078 323.341 117.9 324.47 118.048C325.084 118.128 325.711 118.135 326.341 118.058C327.744 117.885 328.724 116.7 329.137 115.349C329.942 112.714 331.192 108.342 331.192 106.57C331.192 104.57 329.797 103.067 329.142 102.471C328.927 102.276 328.682 102.127 328.42 102.002C326.984 101.319 321.923 99.0241 319.003 99.1638C316.724 99.2722 315.816 100.826 315.463 101.855C315.264 102.437 315.095 103.037 314.911 103.625C314.64 104.491 314.427 105.795 315.249 106.516C315.499 106.735 315.741 107.062 315.97 107.449Z" fill="#34325A"/>
<path d="M326.995 120.179C327.72 120.164 328.263 120.819 328.151 121.535C328.06 122.12 327.557 122.552 326.965 122.554L325.29 122.561C322.795 122.57 322.226 120.685 324.698 120.35C325.377 120.258 326.14 120.197 326.995 120.179Z" fill="#6FA7CD"/>
<path d="M292.223 141.352C292.23 141.33 292.237 141.309 292.243 141.286C292.259 141.222 292.293 141.069 292.298 140.859C292.346 138.904 290.842 136.655 289.459 135.273C288.871 134.686 287.702 135.996 287.196 135.338C286.594 134.557 285.974 133.979 285.705 134.457C285.104 135.518 290.983 143.714 291.145 144.041C291.298 144.348 292.122 141.684 292.223 141.352Z" fill="#F7A077"/>
<path d="M318.597 168.166C316.087 168.199 313.996 170.088 313.701 172.581L308.601 215.782C308.572 216.028 308.561 216.275 308.569 216.523L309.583 249.352C309.649 251.507 311.497 253.175 313.648 253.021C315.486 252.889 316.964 251.458 317.148 249.625C317.723 243.884 318.881 232.019 319.003 228.351C319.129 224.579 318.288 219.257 317.894 217.006C317.769 216.296 317.786 215.571 317.955 214.87L324.727 186.935C324.813 186.582 325.16 186.356 325.517 186.422C325.841 186.481 326.077 186.761 326.08 187.089L326.398 215.307C326.401 215.579 326.426 215.851 326.474 216.119L332.494 250.232C332.759 251.73 334.025 252.845 335.544 252.919C337.393 253.009 338.943 251.549 338.949 249.699C338.966 243.985 338.952 232.71 338.591 229.223C338.19 225.344 336.404 218.29 335.769 215.859C335.621 215.293 335.57 214.71 335.62 214.128L338.105 185.359C338.138 184.974 338.217 184.595 338.309 184.221C338.728 182.533 339.706 177.219 337.439 170.959C336.75 169.054 334.775 167.932 332.75 167.965C328.958 168.027 322.769 168.111 318.597 168.166Z" fill="#34325A"/>
<path d="M320.324 122.58C319.809 122.582 319.301 122.662 318.813 122.825C316.453 123.616 309.124 126.154 307.577 127.703C306.4 128.88 303.826 137.031 302.107 142.808C301.334 145.408 298.047 146.259 296.132 144.338L295.695 143.899C294.132 142.332 291.479 142.844 290.612 144.88C290.198 145.852 290.3 146.962 290.902 147.829C293.36 151.37 299.881 160.466 302.244 160.817C303.174 160.954 304.475 159.238 305.817 156.828C307.465 153.871 312.801 154.686 313.562 157.985C314.023 159.983 314.24 161.845 314.328 163.419C314.477 166.102 316.307 168.626 318.977 168.924C324.401 169.53 329.187 169.383 333.018 168.661C334.918 168.303 336.251 166.674 336.506 164.757L337.997 153.561C338.344 150.956 341.394 150.017 343.161 148.072C344.249 146.874 339.243 127.158 338.155 125.633C337.209 124.307 330.226 122.956 328.418 122.626C328.133 122.574 327.846 122.551 327.556 122.552L320.324 122.58Z" fill="#9AC5E9"/>
<path d="M329.402 135.666C329.348 135.279 328.71 135.373 328.724 135.758C329.027 143.947 328.751 151.931 327.466 160.039C327.38 160.583 328.188 160.831 328.309 160.272C330.046 152.255 330.544 143.803 329.402 135.666Z" fill="#6FA7CD"/>
<path d="M338.69 141.732C338.635 141.459 338.22 141.531 338.215 141.798C338.127 146.583 337.536 151.157 336.63 155.856C335.824 160.031 335.087 164.21 335.358 168.48C335.396 169.077 336.318 169.086 336.292 168.48C336.087 163.549 337.088 158.789 337.985 153.969C338.729 149.966 339.497 145.783 338.69 141.732Z" fill="#6FA7CD"/>
<path d="M312.748 141.587C310.031 143.315 309.01 146.7 307.97 149.579C306.562 153.473 305.156 157.3 302.091 160.223C301.635 160.658 302.316 161.329 302.781 160.912C308.438 155.814 308.169 147.478 312.993 141.907C313.137 141.741 312.953 141.456 312.748 141.587Z" fill="#6FA7CD"/>
<path d="M336.273 166.827C336.197 166.484 335.93 166.514 335.582 166.552C333.104 166.821 323.641 167.692 316.504 166.2C316.096 166.115 314.255 167.728 314.222 168.144C314.209 168.307 314.319 168.262 314.474 168.315C316.055 168.854 324.692 171.536 334.822 169.552C335.464 169.426 336.414 167.466 336.273 166.827Z" fill="#A1533E"/>
<path d="M195.256 222.316C194.564 222.279 194.134 222.685 193.735 223.252C193.213 223.993 192.356 224.919 191.225 225.157C189.264 225.571 184.106 226.707 183.28 227.43C182.126 228.44 183.698 230.012 185.232 230.012H195.694C197.423 230.012 198.823 228.603 198.669 226.88C198.61 226.222 198.53 225.519 198.421 224.836C198.234 223.671 196.435 222.379 195.256 222.316Z" fill="#312F47"/>
<path d="M226.829 222.316C226.136 222.279 225.706 222.685 225.307 223.252C224.785 223.993 223.928 224.919 222.797 225.157C220.836 225.571 215.678 226.707 214.853 227.43C213.699 228.44 215.271 230.012 216.805 230.012H227.265C228.994 230.012 230.394 228.602 230.24 226.879C230.182 226.221 230.101 225.518 229.992 224.836C229.806 223.671 228.007 222.379 226.829 222.316Z" fill="#312F47"/>
<path d="M222.852 58.4448C223.287 59.5919 222.243 60.7656 221.028 60.5947C220.048 60.4568 219.165 60.4261 219.048 60.7338C218.879 61.1803 221.579 62.1711 223.687 62.869C225.197 63.3691 226.417 64.5137 226.957 66.0105L232.033 80.1004C232.459 81.282 232.425 82.5806 231.937 83.7379L231.128 85.6568C230.578 86.9609 230.838 88.4657 231.794 89.5094C233.333 91.1905 236.024 91.0463 237.293 89.1529C238.583 87.2292 239.925 85.0599 240.131 84.0782C240.503 82.3072 230.621 66.0644 228.692 62.9165C228.476 62.5631 228.307 62.1932 228.181 61.7982C227.607 59.9905 225.889 54.6411 225.582 54.3347C225.214 53.9649 220.852 54.1968 219.864 54.2136C219.021 54.2287 221.711 57.0818 222.517 57.9178C222.664 58.0697 222.777 58.2474 222.852 58.4448Z" fill="#E79979"/>
<path d="M206.619 74.3196C206.301 74.5886 206.018 74.8953 205.797 75.2479C205.165 76.2568 203.852 78.5881 203.503 81.0315C203.259 82.7399 203.314 84.4056 203.421 85.6025C203.513 86.6359 204.418 87.3588 205.455 87.3244L205.748 87.3146C206.786 87.2802 207.646 88.1121 207.646 89.1503C207.646 90.1647 208.468 90.987 209.483 90.987H211.719C213.882 90.987 215.613 89.2871 215.944 87.1499C215.974 86.9581 216.006 86.776 216.039 86.6088C216.165 85.9815 216.595 85.1253 217.062 84.3284C217.9 82.8997 218.184 81.1811 217.632 79.6195L215.989 74.97C215.359 73.1886 213.75 71.937 211.868 71.7657C210.576 71.6481 209.292 72.0541 208.303 72.8925L206.619 74.3196Z" fill="#E79979"/>
<path d="M207.657 79.2766C207.928 79.3907 208.242 79.2658 208.383 79.0079C208.85 78.1545 209.958 76.5341 211.242 77.4685C211.842 77.9059 211.961 78.5166 211.864 79.1239C211.615 80.6742 210.956 82.2578 211.567 83.7042C212.07 84.8935 212.799 86.1476 213.717 86.4541C214.037 86.5609 216.748 85.9587 216.991 85.7245C218.471 84.2967 220.646 82.1415 221.146 81.3417C221.92 80.1025 219.908 72.9758 218.515 71.4272C217.122 69.8778 211.087 70.0324 210.623 69.2582C210.158 68.4839 208.611 67.0891 207.063 67.7087C206.188 68.0594 205.906 69.8447 205.827 71.3309C205.755 72.6786 206.464 73.8938 207.258 74.985C207.57 75.4142 207.821 75.8737 207.865 76.2796C207.945 77.0333 207.618 77.9423 207.368 78.5069C207.239 78.7987 207.363 79.1527 207.657 79.2766Z" fill="#34325A"/>
<path d="M200.084 91.1785C200.46 91.2102 200.835 91.198 201.209 91.1457C203.093 90.8824 209.285 90.0526 213.099 89.9658C215.807 89.9041 219.471 90.7246 221.986 91.3966C223.751 91.8683 225.659 91.3821 226.906 90.0461C228.677 88.1475 231.655 88.0507 233.546 89.8302L233.74 90.013C235.51 91.6789 235.812 94.3828 234.421 96.3766C232.634 98.9385 230.326 102.166 229.277 103.287C227.44 105.251 226.099 114.443 225.686 117.231C225.354 119.477 224.62 130.5 224.347 134.704C224.278 135.769 223.857 136.788 222.914 137.287C220.478 138.576 214.244 140.281 200.658 136.186C199.889 135.954 199.442 135.406 199.479 134.603C199.622 131.483 200.285 123.294 200.201 120.949C200.098 118.057 197.519 108.246 197.003 105.87C196.651 104.252 192.718 101.528 190.249 99.9579C189.001 99.1643 188.082 97.8931 188.15 96.4159C188.199 95.3452 188.396 94.0421 188.945 92.8141C189.784 90.935 192.365 90.4386 194.412 90.6528C196.504 90.8717 198.99 91.0863 200.084 91.1785Z" fill="#34325A"/>
<path d="M180.44 67.1367C181.487 66.9717 181.694 68.0642 180.966 68.8344C180.126 69.7215 179.164 70.8517 179.051 71.4785C178.892 72.3517 181.407 80.1908 182.581 83.7777C182.957 84.9277 183.743 85.8922 184.787 86.504L188.137 88.4674C189.833 89.4611 190.608 91.5005 190.002 93.37C189.135 96.0432 185.935 97.1162 183.684 95.4342C181.418 93.7417 179.039 91.8602 178.432 90.9981C177.406 89.5443 175.744 77.2517 175.203 73.0708C175.085 72.1593 174.723 71.3069 174.17 70.5726C173.332 69.4604 172.165 67.8333 172.034 67.2438C171.828 66.3148 171.179 63.2746 171.657 62.6774C172.138 62.0802 175.33 58.7735 175.797 59.7555C176.075 60.3385 176.793 63.0964 177.33 65.2415C177.675 66.6182 179.038 67.3575 180.44 67.1367Z" fill="#E79979"/>
<path d="M203.775 135.667C201.301 135.744 199.286 137.643 199.025 140.105L194.992 178.166L192.883 218.972C192.766 221.24 194.524 223.167 196.793 223.258C198.856 223.341 200.653 221.876 200.976 219.836C202.248 211.785 205.223 192.621 205.283 189.056C205.344 185.433 205.258 181.247 205.221 179.706C205.211 179.298 205.249 178.894 205.336 178.497L209.864 157.822C210.036 157.037 210.731 156.477 211.534 156.477C212.353 156.477 213.057 157.057 213.213 157.861L218.669 185.911L224.113 219.748C224.368 221.336 225.7 222.53 227.307 222.61C229.199 222.705 230.803 221.246 230.866 219.352C231.083 212.809 231.445 198.883 230.742 195.362C229.998 191.64 228.957 188.018 228.572 186.722C228.472 186.387 228.404 186.046 228.373 185.698L225.707 156.494C225.659 155.969 225.695 155.443 225.788 154.924C226.264 152.294 227.492 143.496 224.242 136.338C223.677 135.206 210.715 135.452 203.775 135.667Z" fill="#5655A2"/>
<path d="M152.198 89.2209C152.198 88.3536 151.495 87.6505 150.627 87.6505H149.683C148.294 87.6505 147.169 86.5247 147.169 85.1359V84.1848C147.169 83.318 146.466 82.6154 145.599 82.6154C144.733 82.6154 144.03 83.318 144.03 84.1848V85.135C144.03 86.5242 142.904 87.6505 141.514 87.6505H140.569C139.702 87.6505 138.999 88.3536 138.999 89.2209C138.999 90.0882 139.702 90.7913 140.569 90.7913H141.514C142.904 90.7913 144.03 91.9175 144.03 93.3068V94.257C144.03 95.1237 144.733 95.8264 145.599 95.8264C146.466 95.8264 147.169 95.1237 147.169 94.257V93.3059C147.169 91.9171 148.294 90.7913 149.683 90.7913H150.627C151.495 90.7913 152.198 90.0882 152.198 89.2209Z" fill="#FBBF4F"/>
<path d="M105.381 114.868C103.307 114.868 101.62 116.556 101.62 118.631C101.62 120.706 103.307 122.395 105.381 122.395C107.453 122.395 109.142 120.706 109.142 118.631C109.142 116.556 107.453 114.868 105.381 114.868ZM105.381 126.503C101.045 126.503 97.5158 122.972 97.5158 118.631C97.5158 114.291 101.045 110.76 105.381 110.76C109.718 110.76 113.245 114.291 113.245 118.631C113.245 122.972 109.718 126.503 105.381 126.503Z" fill="#48C2C9"/>
<path d="M347.202 55.7584C347.202 54.8908 346.499 54.1875 345.631 54.1875H344.688C343.299 54.1875 342.173 53.0617 342.173 51.6729V50.7218C342.173 49.8551 341.47 49.1525 340.604 49.1525C339.737 49.1525 339.034 49.8551 339.034 50.7218V51.672C339.034 53.0613 337.908 54.1875 336.519 54.1875H335.574C334.707 54.1875 334.003 54.8908 334.003 55.7584C334.003 56.626 334.707 57.3293 335.574 57.3293H336.519C337.908 57.3293 339.034 58.4555 339.034 59.8448V60.795C339.034 61.6617 339.737 62.3643 340.604 62.3643C341.47 62.3643 342.173 61.6617 342.173 60.795V59.8439C342.173 58.4551 343.299 57.3293 344.688 57.3293H345.631C346.499 57.3293 347.202 56.626 347.202 55.7584Z" fill="#48C2C9"/>
<path d="M322.067 19.8255C322.067 21.5436 320.675 22.9375 318.958 22.9375C317.241 22.9375 315.849 21.5436 315.849 19.8255C315.849 18.1065 317.241 16.7117 318.958 16.7117C320.675 16.7117 322.067 18.1065 322.067 19.8255Z" fill="#6397CF"/>
<path d="M261.386 62.8153C259.31 62.8153 257.624 64.5036 257.624 66.5786C257.624 68.6544 259.31 70.3427 261.386 70.3427C263.457 70.3427 265.145 68.6544 265.145 66.5786C265.145 64.5036 263.457 62.8153 261.386 62.8153ZM261.386 74.4507C257.049 74.4507 253.52 70.9195 253.52 66.5786C253.52 62.2376 257.049 58.7073 261.386 58.7073C265.722 58.7073 269.249 62.2376 269.249 66.5786C269.249 70.9195 265.722 74.4507 261.386 74.4507Z" fill="#FCBA4C"/>
<path d="M303.172 10.7626C301.098 10.7626 299.41 12.4509 299.41 14.5258C299.41 16.6008 301.098 18.29 303.172 18.29C305.244 18.29 306.931 16.6008 306.931 14.5258C306.931 12.4509 305.244 10.7626 303.172 10.7626ZM303.172 22.398C298.835 22.398 295.305 18.8667 295.305 14.5258C295.305 10.1858 298.835 6.6546 303.172 6.6546C307.509 6.6546 311.036 10.1858 311.036 14.5258C311.036 18.8667 307.509 22.398 303.172 22.398Z" fill="#FCBA4C"/>
</svg>
