<svg width="448" height="365" viewBox="0 0 448 365" fill="none" xmlns="http://www.w3.org/2000/svg">
<path d="M443 0C445.761 0 448 2.23858 448 5V360C448 362.761 445.761 365 443 365H10.8768C6.60408 365 4.95935 360.649 8.53696 358.313C18.3951 351.876 33.806 343.94 44.5 340C82.5 326 110.727 317.366 138.245 298.152C160.46 282.64 175.687 257.466 179.111 230.579C182.132 206.978 176.481 183.238 174.894 159.498C173.321 135.758 176.926 109.539 194.269 93.2759C226.45 63.089 282.502 84.9216 320.529 62.5599C336.341 53.2588 347.448 36.383 349.773 18.1985C350.312 13.957 350.402 9.69485 350.234 5.41688C350.12 2.49624 352.403 0 355.326 0H443Z" fill="#FA8072"/>
<path d="M440.737 84.2503C444.087 82.6453 448 85.0709 448 88.7862V360C448 362.761 445.761 365 443 365H216.529C211.481 365 209.431 358.079 213.485 355.07C237.12 337.532 256.905 314.78 270.824 288.823C296.059 241.76 302.866 184.143 339.027 144.836C365.966 115.606 404.667 101.526 440.737 84.2503Z" fill="#FFB19A"/>
<path d="M443.589 274.966C446.112 275.128 448 277.274 448 279.802V360C448 362.761 445.761 365 443 365H313.825C310.602 365 308.218 361.987 309.179 358.91C323.76 312.237 375.665 282.891 421.554 276.068C428.705 275.002 436.232 274.495 443.589 274.966Z" fill="#FA8072"/>
<path d="M390.403 342.762C389.978 342.762 389.557 342.774 389.138 342.797C385.83 342.982 382.437 340.843 381.7 337.612C377.064 317.296 358.905 302.131 337.185 302.131C332.068 302.131 327.146 302.975 322.551 304.53C319.156 305.679 315.263 303.575 314.941 300.004L312.393 271.733C312.161 269.156 310.001 267.182 307.413 267.182H285.311C282.724 267.182 280.564 269.156 280.332 271.734L278.073 296.807C277.777 300.096 274.385 302.184 271.089 301.973C270.616 301.943 270.138 301.928 269.656 301.928C257.382 301.928 247.425 311.882 247.425 324.167V324.167C247.425 326.592 245.814 328.866 243.448 329.403C233.597 331.639 224.956 337.061 218.663 344.534C216.55 347.044 212.615 347.401 209.778 345.753C206.503 343.85 202.701 342.762 198.641 342.762C188.064 342.762 179.211 350.144 176.958 360.04C176.345 362.732 178.641 365 181.403 365H407.64C410.401 365 412.698 362.732 412.085 360.04C409.831 350.144 400.978 342.762 390.403 342.762Z" fill="#FEFEFE"/>
<path d="M390.401 346.679C388.217 346.679 386.082 347.06 384.057 347.81V347.81C381.622 348.71 379 347.033 378.793 344.446V344.446C377.959 334.012 373.261 324.334 365.566 317.188C357.829 310.005 347.751 306.049 337.185 306.049C330.311 306.049 323.495 307.758 317.472 310.991V310.991C314.998 312.319 311.97 310.689 311.718 307.891L308.461 271.733C308.228 269.156 306.068 267.182 303.481 267.182H289.245C286.657 267.182 284.497 269.156 284.265 271.733L281.385 303.7C281.153 306.277 278.53 307.924 276.108 307.014V307.014C274.045 306.24 271.874 305.847 269.656 305.847C259.557 305.847 251.341 314.065 251.341 324.167C251.341 325.392 251.467 326.636 251.712 327.861V327.861C252.155 330.092 250.612 332.233 248.354 332.516V332.516C235.868 334.079 224.865 341.129 218.167 351.857V351.857C216.806 354.038 213.749 354.338 211.989 352.464V352.464C208.486 348.734 203.745 346.679 198.641 346.679C191.898 346.679 185.866 352.663 182.626 359.171C181.203 362.028 183.544 365 186.736 365H402.089C405.281 365 407.627 362.028 406.224 359.161C403.042 352.657 397.141 346.679 390.401 346.679Z" fill="#F3EDD8"/>
<path d="M379.735 365C383.665 365 385.862 360.741 382.819 358.254C378.059 354.362 371.977 352.028 365.35 352.028V352.028C364.936 352.028 364.626 351.652 364.715 351.248C365.13 349.344 365.35 347.366 365.35 345.334C365.35 330.064 352.977 317.688 337.708 317.688C322.618 317.688 310.364 329.784 310.083 344.812L305.517 271.87C305.352 269.235 303.167 267.182 300.527 267.182H292.71C290.096 267.182 287.924 269.194 287.724 271.8L283.918 321.456C283.871 322.076 283.335 322.534 282.714 322.534V322.534C272.894 322.534 264.929 330.502 264.929 340.332V340.332C264.929 342.86 261.235 346.306 258.754 345.826C257.086 345.503 255.363 345.334 253.601 345.334C250.265 345.334 247.072 345.939 244.121 347.043C241.831 347.9 239.185 347.251 236.92 346.33C235.952 345.938 234.895 345.721 233.787 345.721C229.175 345.721 225.438 349.458 225.438 354.072C225.438 356.315 226.323 358.35 227.762 359.849C228.437 360.552 228.738 361.579 228.379 362.486V362.486C227.891 363.72 228.846 365 230.173 365H379.735Z" fill="#FEFEFE"/>
<path d="M350.38 354.288C350.38 357.886 349.046 361.172 346.843 363.677C346.044 364.585 344.849 365 343.639 365H328.641C327.431 365 326.236 364.585 325.437 363.677C323.234 361.172 321.9 357.886 321.9 354.288C321.9 346.419 328.279 340.044 336.141 340.044C344.001 340.044 350.38 346.419 350.38 354.288Z" fill="#F3EDD8"/>
<path d="M291.31 350.618C291.31 354.014 288.557 356.767 285.163 356.767C281.767 356.767 279.017 354.014 279.017 350.618C279.017 347.223 281.767 344.469 285.163 344.469C288.557 344.469 291.31 347.223 291.31 350.618Z" fill="#F3EDD8"/>
<path d="M285.163 334.558C285.163 336.257 283.785 337.633 282.09 337.633C280.392 337.633 279.017 336.257 279.017 334.558C279.017 332.86 280.392 331.484 282.09 331.484C283.785 331.484 285.163 332.86 285.163 334.558Z" fill="#F3EDD8"/>
<path d="M340.169 329.658C340.169 331.357 338.794 332.733 337.096 332.733C335.399 332.733 334.022 331.357 334.022 329.658C334.022 327.962 335.399 326.584 337.096 326.584C338.794 326.584 340.169 327.962 340.169 329.658Z" fill="#F3EDD8"/>
<path d="M253.823 358.005C253.823 359.703 252.448 361.079 250.75 361.079C249.052 361.079 247.677 359.703 247.677 358.005C247.677 356.307 249.052 354.93 250.75 354.93C252.448 354.93 253.823 356.307 253.823 358.005Z" fill="#F3EDD8"/>
<path d="M271.565 318.487C271.565 321.418 269.189 323.795 266.26 323.795C263.33 323.795 260.954 321.418 260.954 318.487C260.954 315.558 263.33 313.181 266.26 313.181C269.189 313.181 271.565 315.558 271.565 318.487Z" fill="#FEFEFE"/>
<path d="M204.49 362.088C204.49 362.126 204.49 362.163 204.489 362.2C204.456 364.009 202.612 365 200.803 365H196.233C194.426 365 192.584 364.012 192.55 362.205C192.549 362.166 192.549 362.127 192.549 362.088C192.549 358.789 195.22 356.111 198.516 356.111C201.82 356.111 204.49 358.789 204.49 362.088Z" fill="#FEFEFE"/>
<path d="M253.601 174.783V259.232C253.601 261.993 251.362 264.232 248.601 264.232H230.438C227.677 264.232 225.438 261.993 225.438 259.232V174.783C225.438 167.007 231.741 160.697 239.519 160.697C243.409 160.697 246.924 162.276 249.474 164.825C252.022 167.37 253.601 170.897 253.601 174.783Z" fill="#FEFEFE"/>
<path d="M365.35 174.783V259.232C365.35 261.993 363.111 264.232 360.35 264.232H342.187C339.426 264.232 337.187 261.993 337.187 259.232V174.783C337.187 167.007 343.495 160.697 351.269 160.697C355.158 160.697 358.678 162.276 361.228 164.825C363.771 167.37 365.35 170.897 365.35 174.783Z" fill="#FEFEFE"/>
<path d="M262.12 198.275C265.453 196.31 269.659 198.713 269.659 202.582V250.124C269.659 252.885 267.421 255.124 264.659 255.124H207.324C204.563 255.124 202.324 252.885 202.324 250.124V236.389C202.324 234.619 203.26 232.981 204.785 232.082L262.12 198.275Z" fill="#34BDB8"/>
<path d="M264.109 222.045C267.052 221.57 269.659 223.896 269.659 226.877V250.124C269.659 252.885 267.421 255.124 264.659 255.124H212.618C208.445 255.124 206.396 250.57 209.501 247.781C218.787 239.439 237.052 226.417 264.109 222.045Z" fill="#28A6A1"/>
<path d="M330.609 198.275C327.276 196.31 323.069 198.713 323.069 202.582V250.124C323.069 252.885 325.308 255.124 328.069 255.124H385.404C388.166 255.124 390.404 252.885 390.404 250.124V236.389C390.404 234.619 389.468 232.981 387.944 232.082L330.609 198.275Z" fill="#34BDB8"/>
<path d="M328.619 222.045C325.676 221.57 323.069 223.896 323.069 226.877V250.124C323.069 252.885 325.308 255.124 328.069 255.124H380.11C384.284 255.124 386.332 250.57 383.227 247.781C373.942 239.439 355.677 226.417 328.619 222.045Z" fill="#28A6A1"/>
<path d="M324.528 152.294V250.124C324.528 252.885 322.289 255.124 319.528 255.124H271.26C268.499 255.124 266.26 252.885 266.26 250.124V150.49C266.26 127.185 275.01 104.73 290.781 87.5728L292.001 86.2514C292.912 85.2558 294.151 84.756 295.394 84.756C296.637 84.756 297.876 85.2558 298.789 86.2514C315.341 104.259 324.528 127.831 324.528 152.294Z" fill="#F3EDD8"/>
<path d="M292.001 86.2514C293.425 84.6965 295.394 86.4651 295.394 88.5735V250.124C295.394 252.885 293.155 255.124 290.394 255.124H271.26C268.499 255.124 266.26 252.885 266.26 250.124V150.49C266.26 127.185 275.01 104.73 290.781 87.5728L292.001 86.2514V86.2514Z" fill="#FEFEFE"/>
<path d="M324.528 251.763C324.528 253.619 323.023 255.124 321.167 255.124H269.621C267.765 255.124 266.26 253.619 266.26 251.763V251.763C266.26 249.906 267.765 248.401 269.621 248.401H321.167C323.023 248.401 324.528 249.906 324.528 251.763V251.763Z" fill="#FFB19A"/>
<path d="M316.223 270.69C315.354 272.319 313.658 273.336 311.812 273.336H278.976C277.13 273.336 275.434 272.319 274.565 270.69L270.183 262.478C268.406 259.147 270.82 255.124 274.595 255.124H316.193C319.968 255.124 322.382 259.147 320.605 262.478L316.223 270.69Z" fill="#2E2E30"/>
<path d="M299.602 219.948V284.069C299.602 286.393 297.718 288.277 295.394 288.277V288.277C293.07 288.277 291.186 286.393 291.186 284.069V219.948C291.186 217.627 293.069 215.742 295.391 215.742C296.552 215.742 297.606 216.212 298.368 216.975C299.131 217.739 299.602 218.788 299.602 219.948Z" fill="#28A6A1"/>
<path d="M299.602 219.948V286.171C299.602 287.334 298.659 288.277 297.496 288.277V288.277C296.334 288.277 295.391 287.334 295.391 286.171V219.049C295.391 217.223 297.077 215.684 298.369 216.975V216.975C299.131 217.739 299.602 218.788 299.602 219.948Z" fill="#34BDB8"/>
<path d="M246.012 264.232C249.449 264.232 251.645 267.894 250.027 270.926V270.926C249.236 272.408 247.692 273.334 246.012 273.334H233.026C231.345 273.334 229.802 272.408 229.011 270.925V270.925C227.393 267.894 229.589 264.232 233.026 264.232H246.012Z" fill="#2E2E30"/>
<path d="M357.762 264.232C361.199 264.232 363.395 267.894 361.777 270.925V270.925C360.986 272.408 359.443 273.334 357.762 273.334H344.776C343.096 273.334 341.552 272.408 340.761 270.926V270.926C339.143 267.894 341.339 264.232 344.776 264.232H357.762Z" fill="#2E2E30"/>
<path d="M249.838 180.214C251.916 180.214 253.601 181.898 253.601 183.976V183.976C253.601 186.054 251.916 187.738 249.838 187.738H229.2C227.123 187.738 225.438 186.054 225.438 183.976V183.976C225.438 181.898 227.123 180.214 229.2 180.214H249.838Z" fill="#F3EDD8"/>
<path d="M361.588 180.214C363.665 180.214 365.35 181.898 365.35 183.976V183.976C365.35 186.054 363.665 187.738 361.588 187.738H340.95C338.872 187.738 337.187 186.054 337.187 183.976V183.976C337.187 181.898 338.872 180.214 340.95 180.214H361.588Z" fill="#F3EDD8"/>
<path d="M307.558 156.925C307.558 163.047 302.594 168.011 296.474 168.011C290.353 168.011 285.392 163.047 285.392 156.925C285.392 150.801 290.353 145.837 296.474 145.837C302.594 145.837 307.558 150.801 307.558 156.925Z" fill="#FFB19A"/>
<path d="M304.323 156.925C304.323 161.262 300.81 164.776 296.474 164.776C292.138 164.776 288.624 161.262 288.624 156.925C288.624 152.587 292.138 149.072 296.474 149.072C300.81 149.072 304.323 152.587 304.323 156.925Z" fill="#2E2E30"/>
<path d="M312.705 127.953C312.908 129.348 311.746 130.497 310.337 130.497V130.497C308.927 130.497 307.812 129.342 307.525 127.963C306.354 122.338 301.364 118.108 295.39 118.108C289.421 118.108 284.435 122.338 283.265 127.962C282.977 129.342 281.862 130.497 280.452 130.497V130.497C279.042 130.497 277.88 129.348 278.083 127.953C279.315 119.498 286.597 113.002 295.39 113.002C304.191 113.002 311.473 119.498 312.705 127.953Z" fill="#2E2E30"/>
<path d="M307.558 190.946C307.558 197.071 302.594 202.034 296.474 202.034C290.353 202.034 285.392 197.071 285.392 190.946C285.392 184.824 290.353 179.86 296.474 179.86C302.594 179.86 307.558 184.824 307.558 190.946Z" fill="#FFB19A"/>
<path d="M304.323 190.946C304.323 195.285 300.81 198.801 296.474 198.801C292.138 198.801 288.624 195.285 288.624 190.946C288.624 186.61 292.138 183.095 296.474 183.095C300.81 183.095 304.323 186.61 304.323 190.946Z" fill="#2E2E30"/>
<path d="M127.106 274.789C127.106 280.641 122.363 285.385 116.514 285.385C110.664 285.385 105.922 280.641 105.922 274.789C105.922 268.938 110.664 264.195 116.514 264.195C122.363 264.195 127.106 268.938 127.106 274.789Z" fill="#FA8072"/>
<path d="M148.911 250.298C148.911 254.152 145.788 257.277 141.935 257.277C138.082 257.277 134.96 254.152 134.96 250.298C134.96 246.445 138.082 243.321 141.935 243.321C145.788 243.321 148.911 246.445 148.911 250.298Z" fill="#FA8072"/>
<path d="M177.412 72.0713C177.412 75.924 174.287 79.0499 170.435 79.0499C166.583 79.0499 163.459 75.924 163.459 72.0713C163.459 68.2172 166.583 65.0927 170.435 65.0927C174.287 65.0927 177.412 68.2172 177.412 72.0713Z" fill="#FFB19A"/>
<path d="M202.302 73.724C202.302 76.3695 200.158 78.5138 197.514 78.5138C194.871 78.5138 192.727 76.3695 192.727 73.724C192.727 71.0799 194.871 68.9342 197.514 68.9342C200.158 68.9342 202.302 71.0799 202.302 73.724Z" fill="#FFB19A"/>
<path d="M295.974 56.4598C295.974 59.1054 293.831 61.251 291.186 61.251C288.542 61.251 286.398 59.1054 286.398 56.4598C286.398 53.8157 288.542 51.6714 291.186 51.6714C293.831 51.6714 295.974 53.8157 295.974 56.4598Z" fill="#FFB19A"/>
<path d="M372.326 80.7027C372.326 84.5568 369.204 87.6813 365.35 87.6813C361.498 87.6813 358.374 84.5568 358.374 80.7027C358.374 76.8485 361.498 73.724 365.35 73.724C369.204 73.724 372.326 76.8485 372.326 80.7027Z" fill="#FFB19A"/>
<path d="M419.615 202.99C419.615 206.843 416.493 209.968 412.64 209.968C408.787 209.968 405.664 206.843 405.664 202.99C405.664 199.135 408.787 196.012 412.64 196.012C416.493 196.012 419.615 199.135 419.615 202.99Z" fill="#FA8072"/>
<path d="M425.626 309.114C425.626 312.967 422.504 316.091 418.65 316.091C414.797 316.091 411.674 312.967 411.674 309.114C411.674 305.258 414.797 302.135 418.65 302.135C422.504 302.135 425.626 305.258 425.626 309.114Z" fill="#FFB19A"/>
<path d="M121.444 344.469C121.444 348.323 118.321 351.448 114.468 351.448C110.615 351.448 107.493 348.323 107.493 344.469C107.493 340.617 110.615 337.491 114.468 337.491C118.321 337.491 121.444 340.617 121.444 344.469Z" fill="#FFB19A"/>
<path d="M77.9511 314.979C77.9511 318.831 74.8276 321.956 70.9748 321.956C67.122 321.956 64 318.831 64 314.979C64 311.125 67.122 308 70.9748 308C74.8276 308 77.9511 311.125 77.9511 314.979Z" fill="#FFB19A"/>
<path d="M429.002 234.83C429.002 240.549 424.367 245.185 418.65 245.185C412.935 245.185 408.301 240.549 408.301 234.83C408.301 229.113 412.935 224.476 418.65 224.476C424.367 224.476 429.002 229.113 429.002 234.83Z" fill="#FA8072"/>
<path d="M226.671 121.75C226.671 125.604 223.548 128.727 219.697 128.727C215.844 128.727 212.72 125.604 212.72 121.75C212.72 117.896 215.844 114.772 219.697 114.772C223.548 114.772 226.671 117.896 226.671 121.75Z" fill="#FFB19A"/>
<path d="M402.33 61.5727C406.866 66.1105 406.866 73.4651 402.33 78.0015C397.797 82.5378 390.443 82.5378 385.908 78.0015C381.373 73.4651 381.373 66.1105 385.908 61.5727C390.443 57.0363 397.797 57.0363 402.33 61.5727Z" fill="#FFB19A"/>
<path d="M212.701 295.521C217.237 300.058 217.237 307.412 212.701 311.95C208.166 316.487 200.814 316.487 196.278 311.95C191.744 307.412 191.744 300.058 196.278 295.521C200.814 290.984 208.166 290.984 212.701 295.521Z" fill="#ED6CA6"/>
<path d="M212.701 295.521C217.237 300.058 217.237 307.412 212.701 311.95C208.166 316.487 200.814 316.487 196.278 311.95C191.744 307.412 191.744 300.058 196.278 295.521C200.814 290.984 208.166 290.984 212.701 295.521Z" fill="#FFB19A"/>
<path d="M378.477 129.236V129.236C378.271 128.51 377.243 128.51 377.038 129.236V129.236V129.236C376.261 131.975 376.261 136.524 377.038 139.264V139.264V139.264C377.243 139.989 378.271 139.989 378.477 139.264V139.264V139.264C379.253 136.526 379.253 131.974 378.477 129.236V129.236Z" fill="#FEFEFE"/>
<path d="M226.156 138.453V138.453C225.951 137.728 224.923 137.728 224.717 138.453V138.453V138.453C223.94 141.193 223.94 145.742 224.717 148.481V148.481V148.481C224.923 149.206 225.951 149.207 226.156 148.481V148.481V148.481C226.935 145.743 226.935 141.191 226.156 138.453V138.453Z" fill="#FEFEFE"/>
<path d="M420.336 329.543V329.543C420.13 328.818 419.102 328.818 418.897 329.543V329.543V329.543C418.118 332.282 418.118 336.833 418.897 339.572V339.572V339.572C419.102 340.297 420.13 340.297 420.336 339.572V339.572V339.572C421.113 336.832 421.112 332.283 420.336 329.543V329.543Z" fill="#FEFEFE"/>
<path d="M154.017 324.646V324.646C153.811 323.92 152.782 323.92 152.576 324.646V324.646V324.646C151.8 327.384 151.8 331.936 152.576 334.674V334.674V334.674C152.782 335.4 153.811 335.4 154.017 334.674V334.674V334.674C154.791 331.935 154.791 327.384 154.017 324.646V324.646Z" fill="#FEFEFE"/>
<path d="M195.689 269.776V269.776C195.483 269.05 194.454 269.05 194.248 269.776V269.776V269.776C193.473 272.515 193.473 277.065 194.248 279.804V279.804V279.804C194.454 280.53 195.483 280.53 195.689 279.804V279.804V279.804C196.465 277.066 196.465 272.514 195.689 269.776V269.776Z" fill="#FEFEFE"/>
<path d="M328.828 86.4852V86.4852C328.622 85.7601 327.594 85.7599 327.388 86.4852V86.4852V86.4852C326.611 89.225 326.611 93.7734 327.388 96.5132V96.5132V96.5132C327.594 97.2385 328.622 97.2382 328.828 96.5132V96.5132V96.5132C329.603 93.7723 329.603 89.2261 328.828 86.4852V86.4852Z" fill="#FEFEFE"/>
<path d="M403.384 118.184V118.184C403.238 117.669 402.506 117.668 402.361 118.184V118.184V118.184C401.806 120.131 401.807 123.369 402.361 125.316V125.316V125.316C402.507 125.832 403.237 125.832 403.384 125.316V125.316V125.316C403.936 123.368 403.936 120.132 403.384 118.184V118.184Z" fill="#FEFEFE"/>
<path d="M244.028 53.2504V53.2504C243.882 52.7342 243.15 52.7342 243.004 53.2504V53.2504V53.2504C242.452 55.1991 242.451 58.435 243.004 60.3836V60.3836V60.3836C243.15 60.8998 243.882 60.8998 244.028 60.3836V60.3836V60.3836C244.581 58.435 244.58 55.1991 244.028 53.2504V53.2504Z" fill="#34BDB8"/>
<path d="M162.365 95.4857V95.4857C162.219 94.9695 161.487 94.9695 161.341 95.4857V95.4857V95.4857C160.789 97.4344 160.788 100.67 161.341 102.619V102.619V102.619C161.487 103.135 162.219 103.135 162.365 102.619V102.619V102.619C162.918 100.67 162.917 97.4344 162.365 95.4857V95.4857Z" fill="#34BDB8"/>
<path d="M149.891 197.802V197.802C149.611 196.815 148.211 196.815 147.931 197.802V197.802V197.802C146.873 201.532 146.874 207.729 147.931 211.459V211.459V211.459C148.211 212.446 149.611 212.446 149.891 211.459V211.459V211.459C150.947 207.728 150.948 201.533 149.891 197.802V197.802Z" fill="#34BDB8"/>
<path d="M160.405 234.457V234.457C160.125 233.47 158.725 233.47 158.445 234.457V234.457V234.457C157.387 238.187 157.387 244.384 158.445 248.114V248.114V248.114C158.725 249.101 160.125 249.102 160.405 248.114V248.114V248.114C161.463 244.384 161.463 238.187 160.405 234.457V234.457Z" fill="#34BDB8"/>
<path d="M49.405 318.456V318.456C49.1249 317.468 47.7252 317.468 47.4451 318.456V318.456V318.456C46.3874 322.186 46.3874 328.384 47.4451 332.114V332.114V332.114C47.7251 333.101 49.125 333.101 49.405 332.114V332.114V332.114C50.4627 328.384 50.4627 322.186 49.405 318.456V318.456Z" fill="#34BDB8"/>
<path d="M162.439 179.895V179.895C162.271 179.304 161.435 179.304 161.267 179.895V179.895V179.895C160.636 182.124 160.636 185.826 161.267 188.056V188.056V188.056C161.434 188.646 162.271 188.646 162.439 188.056V188.056V188.056C163.071 185.827 163.071 182.124 162.439 179.895V179.895Z" fill="#34BDB8"/>
<path d="M106.425 292.066V292.066C106.257 291.476 105.42 291.476 105.253 292.066V292.066V292.066C104.622 294.295 104.622 297.998 105.253 300.227V300.227V300.227C105.42 300.818 106.257 300.818 106.425 300.227V300.227V300.227C107.057 297.998 107.058 294.295 106.425 292.066V292.066Z" fill="#34BDB8"/>
<path d="M171.627 309.615V309.615C171.481 309.099 170.749 309.099 170.603 309.615V309.615V309.615C170.05 311.563 170.05 314.799 170.603 316.747V316.747V316.747C170.749 317.263 171.481 317.263 171.627 316.747V316.747V316.747C172.179 314.799 172.179 311.563 171.627 309.615V309.615Z" fill="#FEFEFE"/>
<path d="M382.987 275.142V275.142C382.841 274.627 382.11 274.627 381.964 275.142V275.142V275.142C381.411 277.091 381.411 280.326 381.964 282.274V282.274V282.274C382.11 282.79 382.841 282.79 382.987 282.274V282.274V282.274C383.541 280.327 383.541 277.09 382.987 275.142V275.142Z" fill="#FEFEFE"/>
<path d="M242.873 126.931V126.931C242.727 126.416 241.996 126.416 241.85 126.931V126.931V126.931C241.296 128.88 241.296 132.116 241.85 134.064V134.064V134.064C241.996 134.58 242.727 134.58 242.873 134.064V134.064V134.064C243.424 132.115 243.424 128.881 242.873 126.931V126.931Z" fill="#FEFEFE"/>
</svg>
